<svg width="81" height="102" viewBox="0 0 81 102" fill="none" xmlns="http://www.w3.org/2000/svg">
<path d="M74.405 57.75H74.8049L74.8927 57.3598L78.9662 39.2621L79.1034 38.6523H78.4784H53.5094V27.4082C53.5094 25.0609 54.3469 22.7717 56.5237 21.0555C58.7173 19.326 62.3312 18.1309 67.974 18.1309H79.5526H80.0526V17.6309V2.22266V1.77746L79.6104 1.72601L79.5526 2.22266C79.6104 1.72601 79.6103 1.726 79.6102 1.72599L79.6098 1.72594L79.6083 1.72576L79.6023 1.72507L79.5791 1.7224L79.4882 1.71207C79.4082 1.70305 79.2897 1.68985 79.1356 1.67306C78.8274 1.63949 78.3763 1.59158 77.8038 1.53412C76.6588 1.4192 75.0279 1.26603 73.0824 1.11287C69.1931 0.806671 64.0404 0.5 58.9992 0.5C48.4529 0.5 39.6708 2.67773 33.5098 6.88242C27.3269 11.102 23.8148 17.3449 23.8148 25.3594V38.6523H1H0.5V39.1523V57.25V57.75H1H23.8148V101V101.5H24.3148H53.0094H53.5094V101V57.75H74.405Z" fill="#57AE09" stroke="#57AE09"/>
</svg>
