<svg width="112" height="115" viewBox="0 0 112 115" fill="none" xmlns="http://www.w3.org/2000/svg">
<path d="M79.0926 115H32.9074C24.1964 114.989 15.8452 111.524 9.68564 105.365C3.52604 99.205 0.0608876 90.8538 0.0502319 82.1428V32.8572C0.0608876 24.1462 3.52604 15.795 9.68564 9.63539C15.8452 3.47579 24.1964 0.0106557 32.9074 0H79.0926C87.8036 0.0106557 96.1548 3.47579 102.314 9.63539C108.474 15.795 111.939 24.1462 111.95 32.8572V82.1428C111.939 90.8538 108.474 99.205 102.314 105.365C96.1548 111.524 87.8036 114.989 79.0926 115ZM32.9074 8.43575C26.4302 8.44108 20.2196 11.0151 15.6376 15.5933C11.0557 20.1715 8.47651 26.38 8.46585 32.8572V82.1428C8.4765 88.6219 11.055 94.8325 15.6364 99.4139C20.2177 103.995 26.4284 106.574 32.9074 106.584H79.0926C85.5698 106.574 91.7783 103.995 96.3565 99.4127C100.935 94.8307 103.509 88.62 103.514 82.1428V32.8572C103.509 26.3818 100.934 20.1733 96.3553 15.5945C91.7765 11.0158 85.5679 8.44109 79.0926 8.43575H32.9074Z" fill="#57AE09"/>
<path d="M56.0002 87.9009C47.8998 87.8902 40.1345 84.6662 34.4085 78.9365C28.6826 73.2067 25.4637 65.4394 25.4584 57.3389C25.4679 53.2104 26.3008 49.1253 27.9083 45.3226C29.5158 41.5199 31.8656 38.0761 34.8202 35.1926C37.6258 32.4311 40.9609 30.2656 44.6249 28.8263C48.2889 27.387 52.2062 26.7036 56.1412 26.8172C65.6641 27.0991 73.5562 30.3002 78.972 36.0784C81.5821 38.9707 83.5946 42.3505 84.8937 46.0234C86.1929 49.6962 86.7531 53.5897 86.5421 57.4798C86.4234 65.5585 83.1841 73.278 77.5023 79.0222C74.6832 81.8502 71.3313 84.091 67.6405 85.615C63.9497 87.139 59.9933 87.916 56.0002 87.9009ZM55.2956 37.0649C50.3104 37.0808 45.5311 39.0547 41.9876 42.5613C40.0162 44.4852 38.4488 46.7832 37.377 49.3208C36.3053 51.8583 35.7509 54.5844 35.7464 57.3389C35.753 59.9987 36.2834 62.6311 37.3074 65.0859C38.3313 67.5406 39.8287 69.7698 41.7142 71.6458C43.5996 73.5219 45.8361 75.0082 48.2959 76.0199C50.7557 77.0317 53.3908 77.5491 56.0505 77.5425C58.7103 77.5359 61.3427 77.0054 63.7975 75.9814C66.2523 74.9575 68.4814 73.46 70.3574 71.5746C72.2335 69.6892 73.7199 67.4528 74.7316 64.9929C75.7433 62.5331 76.2607 59.898 76.2541 57.2382C76.58 52.0922 74.8575 47.026 71.4624 43.1451C67.9593 39.4003 62.5636 37.3266 55.8392 37.1052L55.2956 37.0649Z" fill="#57AE09"/>
<path d="M87.2869 33.0587C91.2231 33.0587 94.414 29.8678 94.414 25.9316C94.414 21.9954 91.2231 18.8044 87.2869 18.8044C83.3507 18.8044 80.1598 21.9954 80.1598 25.9316C80.1598 29.8678 83.3507 33.0587 87.2869 33.0587Z" fill="#57AE09"/>
</svg>
