<svg width="53" height="44" viewBox="0 0 53 44" fill="none" xmlns="http://www.w3.org/2000/svg">
<path d="M52.5281 5.5513C50.8377 6.27811 49.0613 6.78564 47.2421 7.06156C48.0958 7.06156 49.3434 5.38715 49.8359 4.76335C50.6306 3.79191 51.2324 2.67753 51.6088 1.48017C51.6088 1.48017 51.6088 1.28317 51.6088 1.21751C51.5688 1.19446 51.5236 1.18232 51.4775 1.18232C51.4314 1.18232 51.386 1.19446 51.3461 1.21751C49.3551 2.28069 47.2369 3.08608 45.0424 3.61424C44.9775 3.6517 44.9039 3.6714 44.829 3.6714C44.7541 3.6714 44.6805 3.6517 44.6156 3.61424C44.4578 3.4127 44.2819 3.22587 44.0903 3.05608C43.1728 2.29031 42.143 1.67021 41.0369 1.21751C39.562 0.609581 37.9663 0.351147 36.3749 0.462395C34.8263 0.562837 33.3162 0.9879 31.9426 1.70999C30.5362 2.43649 29.2998 3.45298 28.3151 4.69238C27.3303 5.93178 26.6196 7.36592 26.2299 8.90015C25.9344 10.3849 25.9344 11.9133 26.2299 13.3981C26.2299 13.6607 26.2298 13.6936 26 13.6607C17.6907 12.81 9.9983 8.88773 4.42958 2.66212C4.19976 2.39946 4.06843 2.39946 3.83861 2.66212C2.72094 4.7336 2.29944 7.10973 2.63645 9.43925C2.97346 11.7688 4.05109 13.928 5.71002 15.5978C6.13683 15.9918 6.56362 16.3858 7.02327 16.7469C5.58326 16.6335 4.17867 16.2434 2.88649 15.5978C2.62383 15.5978 2.49252 15.5978 2.45968 15.7948C2.42841 16.2101 2.42841 16.6271 2.45968 17.0424C2.70874 18.9805 3.46963 20.8173 4.66411 22.3638C5.8586 23.9103 7.44354 25.1106 9.25585 25.8413C9.6932 26.0476 10.1574 26.1912 10.6348 26.2681C9.28849 26.5097 7.90992 26.5097 6.56363 26.2681C6.26814 26.2681 6.13683 26.2681 6.26815 26.6621C6.96761 28.4868 8.12213 30.1024 9.62196 31.3551C11.1218 32.6078 12.9171 33.4561 14.8372 33.8194C15.2312 33.8194 15.6252 33.8194 16.0192 33.8194C16.4132 33.8194 16.0192 33.8194 16.0192 33.8194C14.3449 35.3243 12.327 36.3953 10.1423 36.9384C7.29383 37.9575 4.25884 38.3495 1.2449 38.0876C0.785257 38.0876 0.686765 38.0876 0.555438 38.0876C0.424111 38.0876 0.555438 38.2845 0.555438 38.383C1.1489 38.7862 1.76255 39.1588 2.39401 39.4993C4.28468 40.4974 6.27693 41.2899 8.33657 41.8632C13.6448 43.4643 19.2805 43.6429 24.6795 42.381C30.0785 41.1192 35.0512 38.4611 39.0999 34.6731C41.9875 31.5544 44.2286 27.8944 45.6938 23.9047C47.1589 19.915 47.8191 15.6745 47.6362 11.4282C47.6362 11.0999 48.0301 10.9029 48.2928 10.7387C49.8853 9.49115 51.2897 8.02048 52.4624 6.37209C52.6592 6.14452 52.7644 5.85205 52.7579 5.5513C52.7579 5.5513 52.7579 5.4528 52.5281 5.5513Z" fill="#57AE09"/>
</svg>
